<svg width="256" height="256" viewBox="0 0 256 256" fill="none" xmlns="http://www.w3.org/2000/svg">
  <!-- Background circle -->
  <circle cx="128" cy="128" r="125" fill="#f3f4f6" stroke="#1f2937" stroke-width="2"/>
  
  <!-- Central hexagon -->
  <path d="M128 48 L176.36 80 L176.36 144 L128 176 L79.64 144 L79.64 80 Z" fill="none" stroke="#dc2626" stroke-width="2.5"/>
  
  <!-- Inner circle at center -->
  <circle cx="128" cy="112" r="12" fill="#dc2626"/>
  
  <!-- Connection nodes -->
  <!-- Top left node -->
  <circle cx="76" cy="64" r="6" fill="#2563eb"/>
  <line x1="92" y1="80" x2="76" y2="64" stroke="#2563eb" stroke-width="1.5" opacity="0.6"/>
  
  <!-- Top right node -->
  <circle cx="180" cy="64" r="6" fill="#2563eb"/>
  <line x1="164" y1="80" x2="180" y2="64" stroke="#2563eb" stroke-width="1.5" opacity="0.6"/>
  
  <!-- Bottom left node -->
  <circle cx="76" cy="160" r="6" fill="#16a34a"/>
  <line x1="92" y1="144" x2="76" y2="160" stroke="#16a34a" stroke-width="1.5" opacity="0.6"/>
  
  <!-- Bottom right node -->
  <circle cx="180" cy="160" r="6" fill="#16a34a"/>
  <line x1="164" y1="144" x2="180" y2="160" stroke="#16a34a" stroke-width="1.5" opacity="0.6"/>
  
  <!-- Right middle node (cache/optimization) -->
  <circle cx="204" cy="112" r="6" fill="#f59e0b"/>
  <line x1="176" y1="112" x2="204" y2="112" stroke="#f59e0b" stroke-width="1.5" opacity="0.6"/>
  
  <!-- Left middle node -->
  <circle cx="52" cy="112" r="6" fill="#8b5cf6"/>
  <line x1="80" y1="112" x2="52" y2="112" stroke="#8b5cf6" stroke-width="1.5" opacity="0.6"/>
  
  <!-- Small connecting lines inside hexagon -->
  <line x1="128" y1="80" x2="128" y2="112" stroke="#dc2626" stroke-width="1" opacity="0.4"/>
  <line x1="128" y1="112" x2="128" y2="144" stroke="#dc2626" stroke-width="1" opacity="0.4"/>
</svg>